<?xml version="1.0" encoding="UTF-8"?>
<svg id="_レイヤー_2" data-name="レイヤー 2" xmlns="http://www.w3.org/2000/svg" viewBox="0 0 500 225">
  <defs>
    <style>
      .cls-1 {
        letter-spacing: .1em;
      }

      .cls-2, .cls-3, .cls-4, .cls-5, .cls-6, .cls-7, .cls-8 {
        font-family: KikaiChokokuJIS-Md-83pv-RKSJ-H, 'Kikai Chokoku JIS';
      }

      .cls-3 {
        fill: #fff;
      }

      .cls-3, .cls-4, .cls-5 {
        font-size: 6px;
      }

      .cls-4, .cls-9, .cls-10, .cls-11, .cls-12, .cls-8 {
        fill: #f5f2e9;
      }

      .cls-5, .cls-13, .cls-14, .cls-7 {
        fill: #231815;
      }

      .cls-15, .cls-16 {
        fill: #00693e;
      }

      .cls-17 {
        fill: #9fa0a0;
      }

      .cls-18 {
        fill: #8fc31f;
      }

      .cls-19 {
        fill: #babbbb;
      }

      .cls-20 {
        fill: #cac9c1;
      }

      .cls-21 {
        fill: #2f2725;
      }

      .cls-22 {
        letter-spacing: -.2em;
      }

      .cls-23, .cls-24, .cls-16, .cls-25, .cls-26, .cls-27, .cls-10, .cls-28, .cls-29, .cls-30, .cls-31, .cls-14, .cls-32, .cls-33, .cls-34, .cls-11, .cls-35 {
        stroke-miterlimit: 10;
      }

      .cls-23, .cls-24, .cls-31, .cls-14 {
        stroke-width: .25px;
      }

      .cls-23, .cls-26, .cls-27, .cls-28, .cls-29, .cls-30, .cls-31, .cls-14, .cls-32, .cls-33, .cls-11, .cls-35 {
        stroke: #f5f2e9;
      }

      .cls-23, .cls-27 {
        fill: #fcc800;
      }

      .cls-24 {
        stroke: #2f2725;
        stroke-linecap: round;
      }

      .cls-24, .cls-35 {
        fill: none;
      }

      .cls-16, .cls-25, .cls-26, .cls-27, .cls-10, .cls-28, .cls-29, .cls-30, .cls-32, .cls-33, .cls-34, .cls-35 {
        stroke-width: .5px;
      }

      .cls-16, .cls-25, .cls-10, .cls-34 {
        stroke: #231815;
      }

      .cls-25, .cls-29 {
        fill: #00479d;
      }

      .cls-26 {
        fill: #eb6100;
      }

      .cls-28 {
        fill: #f39800;
      }

      .cls-30 {
        fill: #094;
      }

      .cls-31, .cls-33, .cls-34 {
        fill: #c11920;
      }

      .cls-32 {
        fill: #761385;
      }

      .cls-6 {
        fill: #f4f3f9;
        font-size: 2px;
      }

      .cls-36 {
        font-family: TsukuARdGothic-Regular-83pv-RKSJ-H, 'Tsukushi A Round Gothic';
      }

      .cls-11 {
        font-family: UDShinMGoPr6N-Light-83pv-RKSJ-H, 'A-OTF UD Shin Maru Go Pr6N';
        stroke-width: .05px;
      }

      .cls-11, .cls-12, .cls-8 {
        font-size: 5px;
      }

      .cls-35 {
        stroke-linecap: square;
      }

      .cls-7 {
        font-size: 4px;
      }
    </style>
  </defs>
  <g id="_レイヤー_1-2" data-name="レイヤー 1">
    <g>
      <g>
        <g>
          <rect class="cls-9" width="500" height="225"/>
          <rect class="cls-15" x="5" y="5" width="490" height="170"/>
        </g>
        <text class="cls-8" transform="translate(472.5 128.85)"><tspan x="0" y="0">田舎線</tspan><tspan x="-2.5" y="5">田舎方面</tspan></text>
        <text class="cls-4" transform="translate(24 37.04)"><tspan x="0" y="0">停止</tspan></text>
        <g>
          <text class="cls-6" transform="translate(424.28 89.68)"><tspan x="0" y="0">N</tspan></text>
          <text class="cls-6" transform="translate(419.3 91.68)"><tspan x="0" y="0">R</tspan></text>
        </g>
        <g>
          <text class="cls-6" transform="translate(369.28 139.68)"><tspan x="0" y="0">N</tspan></text>
          <text class="cls-6" transform="translate(364.3 141.68)"><tspan x="0" y="0">R</tspan></text>
        </g>
        <g>
          <text class="cls-6" transform="translate(479.3 141.68)"><tspan x="0" y="0">R</tspan></text>
          <text class="cls-6" transform="translate(469.3 141.68)"><tspan x="0" y="0">L</tspan></text>
        </g>
        <g>
          <text class="cls-6" transform="translate(254.28 109.68)"><tspan x="0" y="0">N</tspan></text>
          <text class="cls-6" transform="translate(259.3 111.68)"><tspan x="0" y="0">R</tspan></text>
        </g>
        <g>
          <text class="cls-6" transform="translate(254.28 59.68)"><tspan x="0" y="0">N</tspan></text>
          <text class="cls-6" transform="translate(259.3 61.68)"><tspan x="0" y="0">R</tspan></text>
        </g>
        <g>
          <text class="cls-6" transform="translate(254.28 39.68)"><tspan x="0" y="0">N</tspan></text>
          <text class="cls-6" transform="translate(259.3 41.68)"><tspan x="0" y="0">R</tspan></text>
        </g>
        <g>
          <text class="cls-6" transform="translate(74.28 39.68)"><tspan x="0" y="0">N</tspan></text>
          <text class="cls-6" transform="translate(79.3 41.68)"><tspan x="0" y="0">R</tspan></text>
        </g>
        <g>
          <text class="cls-6" transform="translate(179.28 59.68)"><tspan x="0" y="0">N</tspan></text>
          <text class="cls-6" transform="translate(174.3 61.68)"><tspan x="0" y="0">R</tspan></text>
        </g>
        <g>
          <text class="cls-6" transform="translate(179.28 89.68)"><tspan x="0" y="0">N</tspan></text>
          <text class="cls-6" transform="translate(174.3 91.68)"><tspan x="0" y="0">R</tspan></text>
        </g>
        <g>
          <text class="cls-6" transform="translate(179.28 109.68)"><tspan x="0" y="0">N</tspan></text>
          <text class="cls-6" transform="translate(174.3 111.68)"><tspan x="0" y="0">R</tspan></text>
        </g>
        <g>
          <text class="cls-12" transform="translate(20 88.85)"><tspan class="cls-2"><tspan x="0" y="0">上り本線</tspan></tspan><tspan class="cls-2" x="0" y="5">都</tspan><tspan class="cls-36" x="5" y="5">　</tspan><tspan class="cls-2" x="10" y="5">方面</tspan></text>
          <text class="cls-11" transform="translate(25 93.89)"><tspan x="0" y="0">会</tspan></text>
        </g>
        <g>
          <text class="cls-12" transform="translate(470 38.85)"><tspan class="cls-2"><tspan x="0" y="0">下り本線</tspan></tspan><tspan class="cls-36" x="0" y="5">　</tspan><tspan class="cls-2" x="5" y="5">外方面</tspan></text>
          <text class="cls-11" transform="translate(470 43.89)"><tspan x="0" y="0">郊</tspan></text>
        </g>
        <g>
          <text class="cls-4" transform="translate(469 17.04)"><tspan x="0" y="0">電源</tspan></text>
          <circle class="cls-18" cx="475" cy="25" r="1"/>
        </g>
        <path class="cls-9" d="M249.5,36.75v6.5h-69v-6.5h69m.5-.5h-70v7.5h70v-7.5h0Z"/>
        <path class="cls-9" d="M254.5,76.75v16.5h-69v-8.5h-5v-8h74m.5-.5h-75v9h5v8.49h70s0-17.49,0-17.49h0Z"/>
        <path class="cls-9" d="M254.5,126.75v7.75h-5v8.75h-69v-16.5h74m.5-.5h-75v17.5h70v-8.75h5v-8.75h0Z"/>
        <text class="cls-4" transform="translate(468 167.29)"><tspan x="0" y="0">上本</tspan></text>
        <text class="cls-4" transform="translate(20 167.29)"><tspan x="0" y="0">下本</tspan></text>
        <text class="cls-4" transform="translate(438 167.29)"><tspan x="0" y="0">田舎</tspan></text>
      </g>
      <g>
        <rect class="cls-33" x="165" y="97.5" width="70" height="5"/>
        <polygon class="cls-33" points="284.75 97.5 244 97.5 244 95.5 240 97.5 240 102.5 244 104.5 244 102.5 284.75 102.5 284.75 97.5"/>
        <rect class="cls-13" x="197.5" y="98.5" width="15" height="3" transform="translate(410 200) rotate(180)"/>
        <text class="cls-4" transform="translate(235.34 102.29)"><tspan x="0" y="0">3</tspan></text>
      </g>
      <g>
        <polygon class="cls-29" points="244 145.5 240 147.5 240 152.5 244 154.5 244 152.5 295 152.5 295 147.5 244 147.5 244 145.5"/>
        <polygon class="cls-29" points="231 145.5 231 147.5 180 147.5 180 152.5 231 152.5 231 154.5 235 152.5 235 147.5 231 145.5"/>
        <text class="cls-4" transform="translate(235.34 152.29)"><tspan x="0" y="0">5</tspan></text>
        <rect class="cls-13" x="197.5" y="148.5" width="15" height="3"/>
      </g>
      <g>
        <polygon class="cls-27" points="381.46 52.5 392.5 52.5 392.5 57.5 383.54 57.5 376.77 64.27 373.23 60.73 381.46 52.5"/>
        <rect class="cls-27" x="350" y="47.5" width="75" height="5" transform="translate(775 100) rotate(180)"/>
        <rect class="cls-13" x="402.5" y="48.5" width="15" height="3" transform="translate(820 100) rotate(180)"/>
        <rect class="cls-13" x="357.5" y="48.5" width="15" height="3" transform="translate(730 100) rotate(180)"/>
        <text class="cls-4" transform="translate(383.18 63.04)"><tspan x="0" y="0">04</tspan></text>
      </g>
      <g>
        <polygon class="cls-32" points="490 97.5 490 95.5 486 97.5 425 97.5 425 102.5 486 102.5 490 104.5 490 102.5 495 102.5 495 97.5 490 97.5"/>
        <polygon class="cls-32" points="490 47.5 486 45.5 486 47.5 425 47.5 425 52.5 486 52.5 486 54.5 490 52.5 495 52.5 495 47.5 490 47.5"/>
        <rect class="cls-32" x="370" y="147.5" width="125" height="5"/>
        <rect class="cls-13" x="432.5" y="48.5" width="15" height="3"/>
        <rect class="cls-13" x="462.5" y="48.5" width="15" height="3"/>
        <rect class="cls-13" x="432.5" y="98.5" width="15" height="3"/>
        <rect class="cls-13" x="462.5" y="98.5" width="15" height="3"/>
        <rect class="cls-13" x="407.5" y="148.5" width="15" height="3"/>
        <rect class="cls-13" x="437.5" y="148.5" width="15" height="3"/>
        <polygon class="cls-13" points="465 154.5 461 152.5 461 147.5 465 145.5 465 154.5"/>
        <polygon class="cls-13" points="490 152.5 486 154.5 486 145.5 490 147.5 490 152.5"/>
        <polyline class="cls-35" points="486 147.5 486 145.5 490 147.5 492 147.5"/>
        <polyline class="cls-35" points="486 152.5 486 154.5 490 152.5 492 152.5"/>
        <polyline class="cls-35" points="465 147.5 465 145.5 461 147.5 459 147.5"/>
        <polyline class="cls-35" points="465 152.5 465 154.5 461 152.5 459 152.5"/>
      </g>
      <g>
        <polygon class="cls-33" points="244 67.5 244 65.5 240 67.5 240 72.5 244 74.5 244 72.5 305 72.5 305 67.5 244 67.5"/>
        <polygon class="cls-33" points="231 67.5 180 67.5 180 72.5 231 72.5 231 74.5 235 72.5 235 67.5 231 65.5 231 67.5"/>
        <rect class="cls-13" x="197.5" y="68.5" width="15" height="3" transform="translate(410 140) rotate(180)"/>
        <text class="cls-4" transform="translate(235.34 72.29)"><tspan x="0" y="0">2</tspan></text>
      </g>
      <g>
        <polygon class="cls-33" points="231 47.5 150 47.5 150 52.5 231 52.5 231 54.5 235 52.5 235 47.5 231 45.5 231 47.5"/>
        <rect class="cls-33" x="240" y="47.5" width="110" height="5"/>
        <rect class="cls-13" x="197.5" y="48.5" width="15" height="3" transform="translate(410 100) rotate(180)"/>
        <text class="cls-4" transform="translate(235.34 52.29)"><tspan x="0" y="0">1</tspan></text>
      </g>
      <g>
        <polygon class="cls-29" points="244 122.5 255 122.5 255 117.5 244 117.5 244 115.5 240 117.5 240 122.5 244 124.5 244 122.5"/>
        <polygon class="cls-29" points="231 117.5 165 117.5 165 122.5 231 122.5 231 124.5 235 122.5 235 117.5 231 115.5 231 117.5"/>
        <rect class="cls-13" x="197.5" y="118.5" width="15" height="3" transform="translate(410 240) rotate(180)"/>
        <text class="cls-4" transform="translate(235.34 122.29)"><tspan x="0" y="0">4</tspan></text>
      </g>
      <g>
        <polygon class="cls-27" points="118.54 52.5 107.5 52.5 107.5 57.5 116.46 57.5 123.23 64.27 126.77 60.73 118.54 52.5"/>
        <rect class="cls-27" x="75" y="47.5" width="75" height="5"/>
        <rect class="cls-13" x="82.5" y="48.5" width="15" height="3"/>
        <rect class="cls-13" x="127.5" y="48.5" width="15" height="3"/>
        <text class="cls-4" transform="translate(108.18 63.04)"><tspan x="0" y="0">01</tspan></text>
      </g>
      <g>
        <polygon class="cls-28" points="326.46 147.5 337.5 147.5 337.5 142.5 328.54 142.5 316.77 130.73 313.23 134.27 326.46 147.5"/>
        <rect class="cls-28" x="295" y="147.5" width="75" height="5" transform="translate(665 300) rotate(180)"/>
        <rect class="cls-13" x="347.5" y="148.5" width="15" height="3" transform="translate(710 300) rotate(180)"/>
        <rect class="cls-13" x="302.5" y="148.5" width="15" height="3" transform="translate(620 300) rotate(180)"/>
        <text class="cls-4" transform="translate(328.18 141.54)"><tspan x="0" y="0">09</tspan></text>
      </g>
      <g>
        <polygon class="cls-27" points="298.54 117.5 287.5 117.5 287.5 112.5 296.46 112.5 303.23 105.73 306.77 109.27 298.54 117.5"/>
        <polygon class="cls-27" points="300 122.5 301.46 122.5 313.23 134.27 316.77 130.73 303.54 117.5 300 117.5 255 117.5 255 122.5 300 122.5"/>
        <rect class="cls-13" x="262.5" y="118.5" width="15" height="3" transform="translate(540 240) rotate(180)"/>
        <text class="cls-4" transform="translate(288.18 111.54)"><tspan x="0" y="0">08</tspan></text>
      </g>
      <g>
        <rect class="cls-26" x="75" y="97.5" width="90" height="5"/>
        <polygon class="cls-26" points="165 122.5 146.46 122.5 131.46 107.5 122.5 107.5 122.5 102.5 133.54 102.5 148.54 117.5 165 117.5 165 122.5"/>
        <rect class="cls-13" x="132.5" y="111" width="15" height="3" transform="translate(120.55 -66.04) rotate(45)"/>
        <rect class="cls-13" x="82.5" y="98.5" width="15" height="3"/>
        <rect class="cls-13" x="142.5" y="98.5" width="15" height="3"/>
        <text class="cls-4" transform="translate(108.18 91.54)"><tspan x="0" y="0">02</tspan></text>
        <text class="cls-4" transform="translate(123.18 113.04)"><tspan x="0" y="0">10</tspan></text>
        <polygon class="cls-26" points="125.73 83.23 116.46 92.5 107.5 92.5 107.5 97.5 117.5 97.5 118.54 97.5 129.27 86.77 125.73 83.23"/>
      </g>
      <g>
        <polygon class="cls-28" points="135 67.5 133.54 67.5 126.77 60.73 123.23 64.27 131.46 72.5 135 72.5 180 72.5 180 67.5 135 67.5"/>
        <rect class="cls-13" x="157.5" y="68.5" width="15" height="3"/>
        <text class="cls-4" transform="translate(138.18 83.04)"><tspan x="0" y="0">03</tspan></text>
        <polygon class="cls-28" points="137.5 72.5 136.46 72.5 125.73 83.23 129.27 86.77 138.54 77.5 147.5 77.5 147.5 72.5 137.5 72.5"/>
      </g>
      <g>
        <polygon class="cls-28" points="365 67.5 366.46 67.5 373.23 60.73 376.77 64.27 368.54 72.5 365 72.5 305 72.5 305 67.5 365 67.5"/>
        <rect class="cls-13" x="312.5" y="68.5" width="15" height="3" transform="translate(640 140) rotate(180)"/>
        <text class="cls-4" transform="translate(353.18 83.04)"><tspan x="0" y="0">06</tspan></text>
        <text class="cls-4" transform="translate(338.18 83.04)"><tspan x="0" y="0">07</tspan></text>
        <polygon class="cls-28" points="362.5 72.5 363.54 72.5 374.27 83.23 370.73 86.77 361.46 77.5 352.5 77.5 352.5 72.5 362.5 72.5"/>
        <polygon class="cls-28" points="337.5 72.5 336.46 72.5 325.73 83.23 329.27 86.77 338.54 77.5 347.5 77.5 347.5 72.5 337.5 72.5"/>
      </g>
      <g>
        <rect class="cls-26" x="284.75" y="97.5" width="140.25" height="5"/>
        <rect class="cls-13" x="402.5" y="98.5" width="15" height="3" transform="translate(820 200) rotate(180)"/>
        <rect class="cls-13" x="357.5" y="98.5" width="15" height="3" transform="translate(730 200) rotate(180)"/>
        <text class="cls-4" transform="translate(383.18 91.54)"><tspan x="0" y="0">05</tspan></text>
        <polygon class="cls-26" points="374.27 83.23 383.54 92.5 392.5 92.5 392.5 97.5 382.5 97.5 381.46 97.5 370.73 86.77 374.27 83.23"/>
        <rect class="cls-26" x="300.34" y="93.75" width="31.82" height="5" transform="translate(24.57 251.81) rotate(-45)"/>
        <rect class="cls-13" x="310" y="93.5" width="15" height="3" transform="translate(25.82 252.33) rotate(-45)"/>
      </g>
      <g>
        <polygon class="cls-32" points="14 97.5 14 95.5 10 97.5 5 97.5 5 102.5 10 102.5 14 104.5 14 102.5 75 102.5 75 97.5 14 97.5"/>
        <polygon class="cls-32" points="14 47.5 10 45.5 10 47.5 5 47.5 5 52.5 10 52.5 10 54.5 14 52.5 75 52.5 75 47.5 14 47.5"/>
        <rect class="cls-13" x="22.5" y="48.5" width="15" height="3"/>
        <rect class="cls-13" x="52.5" y="48.5" width="15" height="3"/>
        <rect class="cls-13" x="22.5" y="98.5" width="15" height="3"/>
        <rect class="cls-13" x="52.5" y="98.5" width="15" height="3"/>
      </g>
      <rect class="cls-9" x="176.5" y="146.5" width="7" height="7"/>
      <g>
        <g>
          <rect class="cls-19" x="124.5" y="187" width="106" height="31"/>
          <path class="cls-20" d="M230,187.5v30H125v-30h105m1-1H124v32h107v-32h0Z"/>
        </g>
        <g>
          <rect class="cls-9" x="127" y="189.5" width="26" height="26"/>
          <path class="cls-17" d="M152.5,190v25h-25v-25h25m1-1h-27v27h27v-27h0Z"/>
        </g>
        <g>
          <rect class="cls-19" x="234.5" y="187" width="31" height="31"/>
          <path class="cls-20" d="M265,187.5v30h-30v-30h30m1-1h-32v32h32v-32h0Z"/>
        </g>
        <g>
          <circle class="cls-21" cx="250" cy="202.5" r="13"/>
          <path class="cls-17" d="M250,190c6.9,0,12.5,5.6,12.5,12.5s-5.6,12.5-12.5,12.5-12.5-5.6-12.5-12.5,5.6-12.5,12.5-12.5m0-1c-7.44,0-13.5,6.06-13.5,13.5s6.06,13.5,13.5,13.5,13.5-6.06,13.5-13.5-6.06-13.5-13.5-13.5h0Z"/>
        </g>
        <line class="cls-24" x1="140" y1="207.5" x2="147.5" y2="194.51"/>
        <rect class="cls-21" x="127.5" y="205" width="25" height="10"/>
        <circle class="cls-17" cx="140" cy="207.5" r=".5"/>
      </g>
      <g>
        <rect class="cls-16" x="465" y="212.5" width="20" height="7.5" transform="translate(950 432.5) rotate(180)"/>
        <rect class="cls-10" x="465" y="205" width="20" height="7.5" transform="translate(950 417.5) rotate(180)"/>
        <rect class="cls-16" x="465" y="197.5" width="20" height="7.5" transform="translate(950 402.5) rotate(180)"/>
        <rect class="cls-10" x="465" y="190" width="20" height="7.5" transform="translate(950 387.5) rotate(180)"/>
        <text class="cls-5" transform="translate(469 196.04)"><tspan x="0" y="0">番号</tspan></text>
        <rect class="cls-16" x="455" y="212.5" width="10" height="7.5" transform="translate(920 432.5) rotate(180)"/>
        <rect class="cls-10" x="455" y="205" width="10" height="7.5" transform="translate(920 417.5) rotate(180)"/>
        <rect class="cls-16" x="455" y="197.5" width="10" height="7.5" transform="translate(920 402.5) rotate(180)"/>
        <rect class="cls-10" x="455" y="190" width="10" height="7.5" transform="translate(920 387.5) rotate(180)"/>
        <rect class="cls-34" x="390" y="197.5" width="7.5" height="7.5" transform="translate(787.5 402.5) rotate(180)"/>
        <text class="cls-5" transform="translate(457 196.04)"><tspan x="0" y="0">線</tspan></text>
        <text class="cls-3" transform="translate(390.75 203.54)"><tspan x="0" y="0">前</tspan></text>
        <rect class="cls-25" x="390" y="212.5" width="7.5" height="7.5" transform="translate(787.5 432.5) rotate(180)"/>
        <text class="cls-4" transform="translate(390.75 218.54)"><tspan x="0" y="0">次</tspan></text>
        <rect class="cls-16" x="420" y="212.5" width="35" height="7.5" transform="translate(875 432.5) rotate(180)"/>
        <rect class="cls-10" x="420" y="205" width="35" height="7.5" transform="translate(875 417.5) rotate(180)"/>
        <rect class="cls-16" x="420" y="197.5" width="35" height="7.5" transform="translate(875 402.5) rotate(180)"/>
        <rect class="cls-10" x="420" y="190" width="35" height="7.5" transform="translate(875 387.5) rotate(180)"/>
        <text class="cls-5" transform="translate(431.5 196.04)"><tspan x="0" y="0">時刻</tspan></text>
        <text class="cls-5" transform="translate(439 186.04)"><tspan x="0" y="0">下本</tspan></text>
        <rect class="cls-16" x="405" y="212.5" width="15" height="7.5" transform="translate(825 432.5) rotate(180)"/>
        <rect class="cls-10" x="405" y="205" width="15" height="7.5" transform="translate(825 417.5) rotate(180)"/>
        <rect class="cls-16" x="405" y="197.5" width="15" height="7.5" transform="translate(825 402.5) rotate(180)"/>
        <rect class="cls-10" x="405" y="190" width="15" height="7.5" transform="translate(825 387.5) rotate(180)"/>
        <text class="cls-5" transform="translate(406.5 196.04)"><tspan x="0" y="0">扱い</tspan></text>
      </g>
      <g>
        <text class="cls-5" transform="translate(326 186.04)"><tspan x="0" y="0">田舎線</tspan></text>
        <rect class="cls-16" x="355" y="212.5" width="20" height="7.5" transform="translate(730 432.5) rotate(180)"/>
        <rect class="cls-10" x="355" y="205" width="20" height="7.5" transform="translate(730 417.5) rotate(180)"/>
        <rect class="cls-16" x="355" y="197.5" width="20" height="7.5" transform="translate(730 402.5) rotate(180)"/>
        <rect class="cls-10" x="355" y="190" width="20" height="7.5" transform="translate(730 387.5) rotate(180)"/>
        <text class="cls-5" transform="translate(359 196.04)"><tspan x="0" y="0">番号</tspan></text>
        <rect class="cls-16" x="345" y="212.5" width="10" height="7.5" transform="translate(700 432.5) rotate(180)"/>
        <rect class="cls-10" x="345" y="205" width="10" height="7.5" transform="translate(700 417.5) rotate(180)"/>
        <rect class="cls-16" x="345" y="197.5" width="10" height="7.5" transform="translate(700 402.5) rotate(180)"/>
        <rect class="cls-10" x="345" y="190" width="10" height="7.5" transform="translate(700 387.5) rotate(180)"/>
        <rect class="cls-34" x="280" y="197.5" width="7.5" height="7.5" transform="translate(567.5 402.5) rotate(180)"/>
        <text class="cls-5" transform="translate(347 196.04)"><tspan x="0" y="0">線</tspan></text>
        <text class="cls-3" transform="translate(280.75 203.54)"><tspan x="0" y="0">前</tspan></text>
        <rect class="cls-25" x="280" y="212.5" width="7.5" height="7.5" transform="translate(567.5 432.5) rotate(180)"/>
        <text class="cls-4" transform="translate(280.75 218.54)"><tspan x="0" y="0">次</tspan></text>
        <rect class="cls-16" x="310" y="212.5" width="35" height="7.5" transform="translate(655 432.5) rotate(180)"/>
        <rect class="cls-10" x="310" y="205" width="35" height="7.5" transform="translate(655 417.5) rotate(180)"/>
        <rect class="cls-16" x="310" y="197.5" width="35" height="7.5" transform="translate(655 402.5) rotate(180)"/>
        <rect class="cls-10" x="310" y="190" width="35" height="7.5" transform="translate(655 387.5) rotate(180)"/>
        <text class="cls-5" transform="translate(321.5 196.04)"><tspan x="0" y="0">時刻</tspan></text>
        <rect class="cls-16" x="295" y="212.5" width="15" height="7.5" transform="translate(605 432.5) rotate(180)"/>
        <rect class="cls-10" x="295" y="205" width="15" height="7.5" transform="translate(605 417.5) rotate(180)"/>
        <rect class="cls-16" x="295" y="197.5" width="15" height="7.5" transform="translate(605 402.5) rotate(180)"/>
        <rect class="cls-10" x="295" y="190" width="15" height="7.5" transform="translate(605 387.5) rotate(180)"/>
        <text class="cls-5" transform="translate(296.5 196.04)"><tspan x="0" y="0">扱い</tspan></text>
      </g>
      <g>
        <text class="cls-5" transform="translate(49 186.04)"><tspan x="0" y="0">上本</tspan></text>
        <rect class="cls-16" x="75" y="212.5" width="20" height="7.5" transform="translate(170 432.5) rotate(180)"/>
        <rect class="cls-10" x="75" y="205" width="20" height="7.5" transform="translate(170 417.5) rotate(180)"/>
        <rect class="cls-16" x="75" y="197.5" width="20" height="7.5" transform="translate(170 402.5) rotate(180)"/>
        <rect class="cls-10" x="75" y="190" width="20" height="7.5" transform="translate(170 387.5) rotate(180)"/>
        <text class="cls-5" transform="translate(79 196.04)"><tspan x="0" y="0">番号</tspan></text>
        <rect class="cls-16" x="65" y="212.5" width="10" height="7.5" transform="translate(140 432.5) rotate(180)"/>
        <rect class="cls-10" x="65" y="205" width="10" height="7.5" transform="translate(140 417.5) rotate(180)"/>
        <rect class="cls-16" x="65" y="197.5" width="10" height="7.5" transform="translate(140 402.5) rotate(180)"/>
        <rect class="cls-10" x="65" y="190" width="10" height="7.5" transform="translate(140 387.5) rotate(180)"/>
        <rect class="cls-34" x="102.5" y="197.5" width="7.5" height="7.5" transform="translate(212.5 402.5) rotate(180)"/>
        <text class="cls-5" transform="translate(67 196.04)"><tspan x="0" y="0">線</tspan></text>
        <text class="cls-3" transform="translate(103.25 203.54)"><tspan x="0" y="0">前</tspan></text>
        <rect class="cls-25" x="102.5" y="212.5" width="7.5" height="7.5" transform="translate(212.5 432.5) rotate(180)"/>
        <text class="cls-4" transform="translate(103.25 218.54)"><tspan x="0" y="0">次</tspan></text>
        <rect class="cls-16" x="30" y="212.5" width="35" height="7.5" transform="translate(95 432.5) rotate(180)"/>
        <rect class="cls-10" x="30" y="205" width="35" height="7.5" transform="translate(95 417.5) rotate(180)"/>
        <rect class="cls-16" x="30" y="197.5" width="35" height="7.5" transform="translate(95 402.5) rotate(180)"/>
        <rect class="cls-10" x="30" y="190" width="35" height="7.5" transform="translate(95 387.5) rotate(180)"/>
        <text class="cls-5" transform="translate(41.5 196.04)"><tspan x="0" y="0">時刻</tspan></text>
        <rect class="cls-16" x="15" y="212.5" width="15" height="7.5" transform="translate(45 432.5) rotate(180)"/>
        <rect class="cls-10" x="15" y="205" width="15" height="7.5" transform="translate(45 417.5) rotate(180)"/>
        <rect class="cls-16" x="15" y="197.5" width="15" height="7.5" transform="translate(45 402.5) rotate(180)"/>
        <rect class="cls-10" x="15" y="190" width="15" height="7.5" transform="translate(45 387.5) rotate(180)"/>
        <text class="cls-5" transform="translate(16.5 196.04)"><tspan x="0" y="0">扱い</tspan></text>
      </g>
      <rect class="cls-13" x="212.5" y="10" width="75" height="15" transform="translate(500 35) rotate(180)"/>
      <g>
        <g>
          <rect class="cls-13" x="442.5" y="76.25" width="25" height="7.5" transform="translate(910 160) rotate(180)"/>
          <rect class="cls-13" x="442.5" y="86.25" width="25" height="7.5" transform="translate(910 180) rotate(180)"/>
        </g>
        <g>
          <rect class="cls-13" x="417.5" y="126.25" width="25" height="7.5" transform="translate(860 260) rotate(180)"/>
          <rect class="cls-13" x="417.5" y="136.25" width="25" height="7.5" transform="translate(860 280) rotate(180)"/>
        </g>
        <g>
          <rect class="cls-13" x="32.5" y="56.25" width="25" height="7.5" transform="translate(90 120) rotate(180)"/>
          <rect class="cls-13" x="32.5" y="66.25" width="25" height="7.5" transform="translate(90 140) rotate(180)"/>
        </g>
      </g>
      <rect class="cls-13" x="192.5" y="36.25" width="25" height="7.5" transform="translate(410 80) rotate(180)"/>
      <rect class="cls-13" x="192.5" y="76.25" width="25" height="7.5" transform="translate(410 160) rotate(180)"/>
      <rect class="cls-13" x="192.5" y="86.25" width="25" height="7.5" transform="translate(410 180) rotate(180)"/>
      <rect class="cls-13" x="192.5" y="126.25" width="25" height="7.5" transform="translate(410 260) rotate(180)"/>
      <rect class="cls-13" x="192.5" y="136.25" width="25" height="7.5" transform="translate(410 280) rotate(180)"/>
      <g>
        <circle class="cls-10" cx="225" cy="100" r="3.5"/>
        <circle class="cls-10" cx="75" cy="100" r="3.5"/>
        <circle class="cls-10" cx="225" cy="70" r="3.5"/>
        <circle class="cls-10" cx="225" cy="50" r="3.5"/>
        <circle class="cls-10" cx="225" cy="150" r="3.5"/>
        <circle class="cls-10" cx="225" cy="120" r="3.5"/>
        <circle class="cls-10" cx="425" cy="50" r="3.5"/>
        <circle class="cls-10" cx="400" cy="150" r="3.5"/>
      </g>
      <circle class="cls-30" cx="485" cy="165" r="3.5"/>
      <circle class="cls-30" cx="15" cy="165" r="3.5"/>
      <circle class="cls-30" cx="455" cy="165" r="3.5"/>
      <g>
        <text class="cls-6" transform="translate(254.28 139.68)"><tspan x="0" y="0">N</tspan></text>
        <text class="cls-6" transform="translate(259.3 141.68)"><tspan x="0" y="0">R</tspan></text>
      </g>
      <g>
        <path class="cls-13" d="M167.25,75h-5c-1.66,0-3,1.34-3,3s1.34,3,3,3h5c1.66,0,3-1.34,3-3s-1.34-3-3-3Z"/>
        <path class="cls-13" d="M167.25,125h-5c-1.66,0-3,1.34-3,3s1.34,3,3,3h5c1.66,0,3-1.34,3-3s-1.34-3-3-3Z"/>
        <path class="cls-13" d="M272.25,109h-5c-1.66,0-3,1.34-3,3s1.34,3,3,3h5c1.66,0,3-1.34,3-3s-1.34-3-3-3Z"/>
        <path class="cls-13" d="M272.25,59h-5c-1.66,0-3,1.34-3,3s1.34,3,3,3h5c1.66,0,3-1.34,3-3s-1.34-3-3-3Z"/>
        <path class="cls-13" d="M272.25,39h-5c-1.66,0-3,1.34-3,3s1.34,3,3,3h5c1.66,0,3-1.34,3-3s-1.34-3-3-3Z"/>
        <path class="cls-13" d="M272.25,139h-5c-1.66,0-3,1.34-3,3s1.34,3,3,3h5c1.66,0,3-1.34,3-3s-1.34-3-3-3Z"/>
        <g>
          <path class="cls-13" d="M93.75,39h-7.5c-1.66,0-3,1.34-3,3s1.34,3,3,3h7.5c1.66,0,3-1.34,3-3s-1.34-3-3-3Z"/>
          <path class="cls-13" d="M98.75,32h-7.5c-1.66,0-3,1.34-3,3s1.34,3,3,3h7.5c1.66,0,3-1.34,3-3s-1.34-3-3-3Z"/>
        </g>
        <g>
          <path class="cls-13" d="M413.75,112h-7.5c-1.66,0-3,1.34-3,3s1.34,3,3,3h7.5c1.66,0,3-1.34,3-3s-1.34-3-3-3Z"/>
          <path class="cls-13" d="M413.75,105h-7.5c-1.66,0-3,1.34-3,3s1.34,3,3,3h7.5c1.66,0,3-1.34,3-3s-1.34-3-3-3Z"/>
          <path class="cls-13" d="M408.75,119h-7.5c-1.66,0-3,1.34-3,3s1.34,3,3,3h7.5c1.66,0,3-1.34,3-3s-1.34-3-3-3Z"/>
        </g>
        <g>
          <path class="cls-13" d="M358.75,154h-7.5c-1.66,0-3,1.34-3,3s1.34,3,3,3h7.5c1.66,0,3-1.34,3-3s-1.34-3-3-3Z"/>
          <path class="cls-13" d="M353.75,161h-7.5c-1.66,0-3,1.34-3,3s1.34,3,3,3h7.5c1.66,0,3-1.34,3-3s-1.34-3-3-3Z"/>
        </g>
      </g>
      <rect class="cls-13" x="120" y="83.5" width="15" height="3" transform="translate(-22.76 115.05) rotate(-45)"/>
      <rect class="cls-13" x="367.5" y="61" width="15" height="3" transform="translate(65.64 283.47) rotate(-45)"/>
      <rect class="cls-13" x="365" y="83.5" width="15" height="3" transform="translate(169.21 -238.5) rotate(45)"/>
      <rect class="cls-13" x="307.5" y="131" width="15" height="3" transform="translate(185.95 -183.93) rotate(45)"/>
      <rect class="cls-13" x="117.5" y="61" width="15" height="3" transform="translate(80.81 -70.08) rotate(45)"/>
      <g>
        <path class="cls-31" d="M33.28,20.9c-.89-.71-1.41-1.79-1.41-2.93v-5.72c0-.41-.34-.75-.75-.75h-2.25c-.41,0-.75,.34-.75,.75v5.72c0,1.14-.52,2.22-1.41,2.93h0c-1.49,1.2-2.32,3.19-1.83,5.34,.43,1.9,1.97,3.44,3.87,3.87,3.44,.79,6.49-1.81,6.49-5.11,0-1.66-.77-3.14-1.97-4.1h0Z"/>
        <g id="CIRCLE">
          <circle class="cls-9" cx="30" cy="25" r="3.75"/>
        </g>
      </g>
      <g>
        <path class="cls-14" d="M77.19,22.27c-.59-.47-.94-1.19-.94-1.95v-3.82c0-.28-.22-.5-.5-.5h-1.5c-.28,0-.5,.22-.5,.5v3.82c0,.76-.34,1.48-.94,1.95h0c-1,.8-1.55,2.13-1.22,3.56,.29,1.26,1.32,2.29,2.58,2.58,2.29,.52,4.33-1.2,4.33-3.41,0-1.11-.51-2.09-1.31-2.73h0Z"/>
        <g id="CIRCLE-2" data-name="CIRCLE">
          <circle class="cls-9" cx="75" cy="25" r="2.5"/>
        </g>
        <text class="cls-7" transform="translate(73.56 26.61)"><tspan x="0" y="0">1</tspan></text>
      </g>
      <g>
        <path class="cls-14" d="M92.19,22.27c-.59-.47-.94-1.19-.94-1.95v-3.82c0-.28-.22-.5-.5-.5h-1.5c-.28,0-.5,.22-.5,.5v3.82c0,.76-.34,1.48-.94,1.95h0c-1,.8-1.55,2.13-1.22,3.56,.29,1.26,1.32,2.29,2.58,2.58,2.29,.52,4.33-1.2,4.33-3.41,0-1.11-.51-2.09-1.31-2.73h0Z"/>
        <g id="CIRCLE-3" data-name="CIRCLE">
          <circle class="cls-9" cx="90" cy="25" r="2.5"/>
        </g>
        <text class="cls-7" transform="translate(88.56 26.61)"><tspan x="0" y="0">2</tspan></text>
      </g>
      <g>
        <path class="cls-14" d="M107.19,22.27c-.59-.47-.94-1.19-.94-1.95v-3.82c0-.28-.22-.5-.5-.5h-1.5c-.28,0-.5,.22-.5,.5v3.82c0,.76-.34,1.48-.94,1.95h0c-1,.8-1.55,2.13-1.22,3.56,.29,1.26,1.32,2.29,2.58,2.58,2.29,.52,4.33-1.2,4.33-3.41,0-1.11-.51-2.09-1.31-2.73h0Z"/>
        <g id="CIRCLE-4" data-name="CIRCLE">
          <circle class="cls-9" cx="105" cy="25" r="2.5"/>
        </g>
        <text class="cls-7" transform="translate(103.56 26.61)"><tspan x="0" y="0">3</tspan></text>
      </g>
      <g>
        <text class="cls-6" transform="translate(69.28 16.68)"><tspan x="0" y="0">N</tspan></text>
        <text class="cls-6" transform="translate(74.3 14.68)"><tspan x="0" y="0">C</tspan></text>
        <text class="cls-6" transform="translate(79.3 16.68)"><tspan x="0" y="0">R</tspan></text>
        <circle class="cls-13" cx="80" cy="13" r="1"/>
        <circle class="cls-13" cx="70" cy="13" r="1"/>
        <text class="cls-6" transform="translate(84.28 16.68)"><tspan x="0" y="0">N</tspan></text>
        <text class="cls-6" transform="translate(89.3 14.68)"><tspan x="0" y="0">C</tspan></text>
        <text class="cls-6" transform="translate(94.3 16.68)"><tspan x="0" y="0">R</tspan></text>
        <circle class="cls-13" cx="95" cy="13" r="1"/>
        <circle class="cls-13" cx="85" cy="13" r="1"/>
        <text class="cls-6" transform="translate(99.28 16.68)"><tspan x="0" y="0">N</tspan></text>
        <text class="cls-6" transform="translate(104.3 14.68)"><tspan x="0" y="0">C</tspan></text>
        <text class="cls-6" transform="translate(109.3 16.68)"><tspan x="0" y="0">R</tspan></text>
        <circle class="cls-13" cx="110" cy="13" r="1"/>
        <circle class="cls-13" cx="100" cy="13" r="1"/>
      </g>
      <g>
        <path class="cls-14" d="M397.19,22.27c-.59-.47-.94-1.19-.94-1.95v-3.82c0-.28-.22-.5-.5-.5h-1.5c-.28,0-.5,.22-.5,.5v3.82c0,.76-.34,1.48-.94,1.95h0c-1,.8-1.55,2.13-1.22,3.56,.29,1.26,1.32,2.29,2.58,2.58,2.29,.52,4.33-1.2,4.33-3.41,0-1.11-.51-2.09-1.31-2.73h0Z"/>
        <g id="CIRCLE-5" data-name="CIRCLE">
          <circle class="cls-9" cx="395" cy="25" r="2.5"/>
        </g>
        <text class="cls-7" transform="translate(393.56 26.61)"><tspan x="0" y="0">4</tspan></text>
      </g>
      <g>
        <path class="cls-14" d="M412.19,22.27c-.59-.47-.94-1.19-.94-1.95v-3.82c0-.28-.22-.5-.5-.5h-1.5c-.28,0-.5,.22-.5,.5v3.82c0,.76-.34,1.48-.94,1.95h0c-1,.8-1.55,2.13-1.22,3.56,.29,1.26,1.32,2.29,2.58,2.58,2.29,.52,4.33-1.2,4.33-3.41,0-1.11-.51-2.09-1.31-2.73h0Z"/>
        <g id="CIRCLE-6" data-name="CIRCLE">
          <circle class="cls-9" cx="410" cy="25" r="2.5"/>
        </g>
        <text class="cls-7" transform="translate(408.56 26.61)"><tspan x="0" y="0">5</tspan></text>
      </g>
      <g>
        <path class="cls-14" d="M427.19,22.27c-.59-.47-.94-1.19-.94-1.95v-3.82c0-.28-.22-.5-.5-.5h-1.5c-.28,0-.5,.22-.5,.5v3.82c0,.76-.34,1.48-.94,1.95h0c-1,.8-1.55,2.13-1.22,3.56,.29,1.26,1.32,2.29,2.58,2.58,2.29,.52,4.33-1.2,4.33-3.41,0-1.11-.51-2.09-1.31-2.73h0Z"/>
        <g id="CIRCLE-7" data-name="CIRCLE">
          <circle class="cls-9" cx="425" cy="25" r="2.5"/>
        </g>
        <text class="cls-7" transform="translate(423.56 26.61)"><tspan x="0" y="0">6</tspan></text>
      </g>
      <g>
        <text class="cls-6" transform="translate(389.28 16.68)"><tspan x="0" y="0">N</tspan></text>
        <text class="cls-6" transform="translate(394.3 14.68)"><tspan x="0" y="0">C</tspan></text>
        <text class="cls-6" transform="translate(399.3 16.68)"><tspan x="0" y="0">R</tspan></text>
        <circle class="cls-13" cx="400" cy="13" r="1"/>
        <circle class="cls-13" cx="390" cy="13" r="1"/>
        <text class="cls-6" transform="translate(404.28 16.68)"><tspan x="0" y="0">N</tspan></text>
        <text class="cls-6" transform="translate(409.3 14.68)"><tspan x="0" y="0">C</tspan></text>
        <text class="cls-6" transform="translate(414.3 16.68)"><tspan x="0" y="0">R</tspan></text>
        <circle class="cls-13" cx="415" cy="13" r="1"/>
        <circle class="cls-13" cx="405" cy="13" r="1"/>
        <text class="cls-6" transform="translate(419.28 16.68)"><tspan x="0" y="0">N</tspan></text>
        <text class="cls-6" transform="translate(424.3 14.68)"><tspan x="0" y="0">C</tspan></text>
        <text class="cls-6" transform="translate(429.3 16.68)"><tspan x="0" y="0">R</tspan></text>
        <circle class="cls-13" cx="430" cy="13" r="1"/>
        <circle class="cls-13" cx="420" cy="13" r="1"/>
      </g>
      <g>
        <path class="cls-14" d="M337.19,22.27c-.59-.47-.94-1.19-.94-1.95v-3.82c0-.28-.22-.5-.5-.5h-1.5c-.28,0-.5,.22-.5,.5v3.82c0,.76-.34,1.48-.94,1.95h0c-1,.8-1.55,2.13-1.22,3.56,.29,1.26,1.32,2.29,2.58,2.58,2.29,.52,4.33-1.2,4.33-3.41,0-1.11-.51-2.09-1.31-2.73h0Z"/>
        <g id="CIRCLE-8" data-name="CIRCLE">
          <circle class="cls-9" cx="335" cy="25" r="2.5"/>
        </g>
        <text class="cls-7" transform="translate(333.56 26.61)"><tspan x="0" y="0">7</tspan></text>
      </g>
      <g>
        <path class="cls-14" d="M352.19,22.27c-.59-.47-.94-1.19-.94-1.95v-3.82c0-.28-.22-.5-.5-.5h-1.5c-.28,0-.5,.22-.5,.5v3.82c0,.76-.34,1.48-.94,1.95h0c-1,.8-1.55,2.13-1.22,3.56,.29,1.26,1.32,2.29,2.58,2.58,2.29,.52,4.33-1.2,4.33-3.41,0-1.11-.51-2.09-1.31-2.73h0Z"/>
        <g id="CIRCLE-9" data-name="CIRCLE">
          <circle class="cls-9" cx="350" cy="25" r="2.5"/>
        </g>
        <text class="cls-7" transform="translate(348.56 26.61)"><tspan x="0" y="0">8</tspan></text>
      </g>
      <g>
        <path class="cls-14" d="M367.19,22.27c-.59-.47-.94-1.19-.94-1.95v-3.82c0-.28-.22-.5-.5-.5h-1.5c-.28,0-.5,.22-.5,.5v3.82c0,.76-.34,1.48-.94,1.95h0c-1,.8-1.55,2.13-1.22,3.56,.29,1.26,1.32,2.29,2.58,2.58,2.29,.52,4.33-1.2,4.33-3.41,0-1.11-.51-2.09-1.31-2.73h0Z"/>
        <g id="CIRCLE-10" data-name="CIRCLE">
          <circle class="cls-9" cx="365" cy="25" r="2.5"/>
        </g>
        <text class="cls-7" transform="translate(363.56 26.61)"><tspan x="0" y="0">9</tspan></text>
      </g>
      <g>
        <text class="cls-6" transform="translate(359.28 16.68)"><tspan x="0" y="0">N</tspan></text>
        <text class="cls-6" transform="translate(364.3 14.68)"><tspan x="0" y="0">C</tspan></text>
        <text class="cls-6" transform="translate(369.3 16.68)"><tspan x="0" y="0">R</tspan></text>
        <circle class="cls-13" cx="370" cy="13" r="1"/>
        <circle class="cls-13" cx="360" cy="13" r="1"/>
        <text class="cls-6" transform="translate(329.28 16.68)"><tspan x="0" y="0">N</tspan></text>
        <text class="cls-6" transform="translate(334.3 14.68)"><tspan x="0" y="0">C</tspan></text>
        <text class="cls-6" transform="translate(339.3 16.68)"><tspan x="0" y="0">R</tspan></text>
        <circle class="cls-13" cx="340" cy="13" r="1"/>
        <circle class="cls-13" cx="330" cy="13" r="1"/>
        <text class="cls-6" transform="translate(344.28 16.68)"><tspan x="0" y="0">N</tspan></text>
        <text class="cls-6" transform="translate(349.3 14.68)"><tspan x="0" y="0">C</tspan></text>
        <text class="cls-6" transform="translate(354.3 16.68)"><tspan x="0" y="0">R</tspan></text>
        <circle class="cls-13" cx="355" cy="13" r="1"/>
        <circle class="cls-13" cx="345" cy="13" r="1"/>
      </g>
      <g>
        <path class="cls-14" d="M137.19,22.27c-.59-.47-.94-1.19-.94-1.95v-3.82c0-.28-.22-.5-.5-.5h-1.5c-.28,0-.5,.22-.5,.5v3.82c0,.76-.34,1.48-.94,1.95h0c-1,.8-1.55,2.13-1.22,3.56,.29,1.26,1.32,2.29,2.58,2.58,2.29,.52,4.33-1.2,4.33-3.41,0-1.11-.51-2.09-1.31-2.73h0Z"/>
        <g id="CIRCLE-11" data-name="CIRCLE">
          <circle class="cls-9" cx="135" cy="25" r="2.5"/>
        </g>
        <text class="cls-7" transform="translate(132.32 26.61)"><tspan class="cls-22" x="0" y="0">1</tspan><tspan class="cls-1" x="2.08" y="0">0</tspan></text>
      </g>
      <g>
        <text class="cls-6" transform="translate(129.28 16.68)"><tspan x="0" y="0">N</tspan></text>
        <text class="cls-6" transform="translate(134.3 14.68)"><tspan x="0" y="0">C</tspan></text>
        <text class="cls-6" transform="translate(139.3 16.68)"><tspan x="0" y="0">R</tspan></text>
        <circle class="cls-13" cx="140" cy="13" r="1"/>
        <circle class="cls-13" cx="130" cy="13" r="1"/>
      </g>
      <g>
        <path class="cls-23" d="M477.19,147.27c-.59-.47-.94-1.19-.94-1.95v-3.82c0-.28-.22-.5-.5-.5h-1.5c-.28,0-.5,.22-.5,.5v3.82c0,.76-.34,1.48-.94,1.95h0c-1,.8-1.55,2.13-1.22,3.56,.29,1.26,1.32,2.29,2.58,2.58,2.29,.52,4.33-1.2,4.33-3.41,0-1.11-.51-2.09-1.31-2.73h0Z"/>
        <g id="CIRCLE-12" data-name="CIRCLE">
          <circle class="cls-9" cx="475" cy="150" r="2.5"/>
        </g>
        <text class="cls-7" transform="translate(473.56 151.61)"><tspan x="0" y="0">1</tspan></text>
      </g>
      <g>
        <path class="cls-31" d="M77.19,47.27c-.59-.47-.94-1.19-.94-1.95v-3.82c0-.28-.22-.5-.5-.5h-1.5c-.28,0-.5,.22-.5,.5v3.82c0,.76-.34,1.48-.94,1.95h0c-1,.8-1.55,2.13-1.22,3.56,.29,1.26,1.32,2.29,2.58,2.58,2.29,.52,4.33-1.2,4.33-3.41,0-1.11-.51-2.09-1.31-2.73h0Z"/>
        <g id="CIRCLE-13" data-name="CIRCLE">
          <circle class="cls-9" cx="75" cy="50" r="2.5"/>
        </g>
        <text class="cls-7" transform="translate(73.56 51.61)"><tspan x="0" y="0">1</tspan></text>
      </g>
      <g>
        <path class="cls-31" d="M427.19,97.27c-.59-.47-.94-1.19-.94-1.95v-3.82c0-.28-.22-.5-.5-.5h-1.5c-.28,0-.5,.22-.5,.5v3.82c0,.76-.34,1.48-.94,1.95h0c-1,.8-1.55,2.13-1.22,3.56,.29,1.26,1.32,2.29,2.58,2.58,2.29,.52,4.33-1.2,4.33-3.41,0-1.11-.51-2.09-1.31-2.73h0Z"/>
        <g id="CIRCLE-14" data-name="CIRCLE">
          <circle class="cls-9" cx="425" cy="100" r="2.5"/>
        </g>
        <text class="cls-7" transform="translate(423.56 101.61)"><tspan x="0" y="0">2</tspan></text>
      </g>
      <g>
        <path class="cls-31" d="M257.19,47.27c-.59-.47-.94-1.19-.94-1.95v-3.82c0-.28-.22-.5-.5-.5h-1.5c-.28,0-.5,.22-.5,.5v3.82c0,.76-.34,1.48-.94,1.95h0c-1,.8-1.55,2.13-1.22,3.56,.29,1.26,1.32,2.29,2.58,2.58,2.29,.52,4.33-1.2,4.33-3.41,0-1.11-.51-2.09-1.31-2.73h0Z"/>
        <g id="CIRCLE-15" data-name="CIRCLE">
          <circle class="cls-9" cx="255" cy="50" r="2.5"/>
        </g>
        <text class="cls-7" transform="translate(253.56 51.61)"><tspan x="0" y="0">3</tspan></text>
      </g>
      <g>
        <path class="cls-31" d="M182.19,97.27c-.59-.47-.94-1.19-.94-1.95v-3.82c0-.28-.22-.5-.5-.5h-1.5c-.28,0-.5,.22-.5,.5v3.82c0,.76-.34,1.48-.94,1.95h0c-1,.8-1.55,2.13-1.22,3.56,.29,1.26,1.32,2.29,2.58,2.58,2.29,.52,4.33-1.2,4.33-3.41,0-1.11-.51-2.09-1.31-2.73h0Z"/>
        <g id="CIRCLE-16" data-name="CIRCLE">
          <circle class="cls-9" cx="180" cy="100" r="2.5"/>
        </g>
        <text class="cls-7" transform="translate(178.56 101.61)"><tspan x="0" y="0">4</tspan></text>
      </g>
      <g>
        <path class="cls-31" d="M257.19,67.27c-.59-.47-.94-1.19-.94-1.95v-3.82c0-.28-.22-.5-.5-.5h-1.5c-.28,0-.5,.22-.5,.5v3.82c0,.76-.34,1.48-.94,1.95h0c-1,.8-1.55,2.13-1.22,3.56,.29,1.26,1.32,2.29,2.58,2.58,2.29,.52,4.33-1.2,4.33-3.41,0-1.11-.51-2.09-1.31-2.73h0Z"/>
        <g id="CIRCLE-17" data-name="CIRCLE">
          <circle class="cls-9" cx="255" cy="70" r="2.5"/>
        </g>
        <text class="cls-7" transform="translate(253.56 71.61)"><tspan x="0" y="0">5</tspan></text>
      </g>
      <g>
        <path class="cls-31" d="M182.19,67.27c-.59-.47-.94-1.19-.94-1.95v-3.82c0-.28-.22-.5-.5-.5h-1.5c-.28,0-.5,.22-.5,.5v3.82c0,.76-.34,1.48-.94,1.95h0c-1,.8-1.55,2.13-1.22,3.56,.29,1.26,1.32,2.29,2.58,2.58,2.29,.52,4.33-1.2,4.33-3.41,0-1.11-.51-2.09-1.31-2.73h0Z"/>
        <g id="CIRCLE-18" data-name="CIRCLE">
          <circle class="cls-9" cx="180" cy="70" r="2.5"/>
        </g>
        <text class="cls-7" transform="translate(178.56 71.61)"><tspan x="0" y="0">6</tspan></text>
      </g>
      <g>
        <path class="cls-31" d="M257.19,147.27c-.59-.47-.94-1.19-.94-1.95v-3.82c0-.28-.22-.5-.5-.5h-1.5c-.28,0-.5,.22-.5,.5v3.82c0,.76-.34,1.48-.94,1.95h0c-1,.8-1.55,2.13-1.22,3.56,.29,1.26,1.32,2.29,2.58,2.58,2.29,.52,4.33-1.2,4.33-3.41,0-1.11-.51-2.09-1.31-2.73h0Z"/>
        <g id="CIRCLE-19" data-name="CIRCLE">
          <circle class="cls-9" cx="255" cy="150" r="2.5"/>
        </g>
        <text class="cls-7" transform="translate(253.56 151.61)"><tspan x="0" y="0">7</tspan></text>
      </g>
      <g>
        <path class="cls-31" d="M372.19,147.27c-.59-.47-.94-1.19-.94-1.95v-3.82c0-.28-.22-.5-.5-.5h-1.5c-.28,0-.5,.22-.5,.5v3.82c0,.76-.34,1.48-.94,1.95h0c-1,.8-1.55,2.13-1.22,3.56,.29,1.26,1.32,2.29,2.58,2.58,2.29,.52,4.33-1.2,4.33-3.41,0-1.11-.51-2.09-1.31-2.73h0Z"/>
        <g id="CIRCLE-20" data-name="CIRCLE">
          <circle class="cls-9" cx="370" cy="150" r="2.5"/>
        </g>
        <text class="cls-7" transform="translate(368.56 151.61)"><tspan x="0" y="0">8</tspan></text>
      </g>
      <g>
        <path class="cls-31" d="M257.19,117.27c-.59-.47-.94-1.19-.94-1.95v-3.82c0-.28-.22-.5-.5-.5h-1.5c-.28,0-.5,.22-.5,.5v3.82c0,.76-.34,1.48-.94,1.95h0c-1,.8-1.55,2.13-1.22,3.56,.29,1.26,1.32,2.29,2.58,2.58,2.29,.52,4.33-1.2,4.33-3.41,0-1.11-.51-2.09-1.31-2.73h0Z"/>
        <g id="CIRCLE-21" data-name="CIRCLE">
          <circle class="cls-9" cx="255" cy="120" r="2.5"/>
        </g>
        <text class="cls-7" transform="translate(253.56 121.61)"><tspan x="0" y="0">9</tspan></text>
      </g>
      <g>
        <path class="cls-31" d="M182.19,117.27c-.59-.47-.94-1.19-.94-1.95v-3.82c0-.28-.22-.5-.5-.5h-1.5c-.28,0-.5,.22-.5,.5v3.82c0,.76-.34,1.48-.94,1.95h0c-1,.8-1.55,2.13-1.22,3.56,.29,1.26,1.32,2.29,2.58,2.58,2.29,.52,4.33-1.2,4.33-3.41,0-1.11-.51-2.09-1.31-2.73h0Z"/>
        <g id="CIRCLE-22" data-name="CIRCLE">
          <circle class="cls-9" cx="180" cy="120" r="2.5"/>
        </g>
        <text class="cls-7" transform="translate(177.32 121.61)"><tspan class="cls-22" x="0" y="0">1</tspan><tspan class="cls-1" x="2.08" y="0">0</tspan></text>
      </g>
    </g>
  </g>
</svg>