<?xml version="1.0" encoding="UTF-8"?>
<svg id="_レイヤー_2" data-name="レイヤー 2" xmlns="http://www.w3.org/2000/svg" viewBox="0 0 120 20">
  <defs>
    <style>
      .cls-1 {
        fill: none;
      }

      .cls-2 {
        fill: #ffe;
      }
    </style>
  </defs>
  <g id="_レイヤー_1-2" data-name="レイヤー 1">
    <g>
      <rect class="cls-1" width="120" height="20"/>
      <g>
        <rect class="cls-2" x=".7812" y="1.9922" width="2.8906" height="12.0156"/>
        <path class="cls-2" d="m6.8486,9.1484c0-.4893.0669-.8926.1978-1.1963.2397-.5459.6733-.8115,1.3257-.8115.5161,0,.8521.1694,1.0264.5181.1016.2036.1533.5132.1533.9194v5.4297h2.7812v-5.9844c0-1.1406-.313-1.9771-.9312-2.4858-.603-.4966-1.3833-.7485-2.3188-.7485-.7554,0-1.3921.1904-1.8931.5659-.1357.103-.2725.2329-.4116.3921v-.7393h-2.6484v9h2.7188v-4.8594Z"/>
        <path class="cls-2" d="m15.2837,14.1294c.0864,0,.1758-.0015.2671-.0044l1.2954-.0483v-2.1738l-.2681.0195c-.0703.0054-.1411.0088-.2144.0112-.0723.0029-.1406.0039-.2051.0039-.5249,0-.6372-.0547-.6343-.0537-.0024-.0034-.061-.0894-.061-.4775v-4.25h1.3828v-2.0859h-1.3828v-2.375h-2.7031v9.4531c0,.5967.1504,1.0527.4448,1.353.4048.4219,1.0859.6279,2.0786.6279Z"/>
        <path class="cls-2" d="m18.1152,13.1831c.8701.7339,1.8892,1.106,3.0283,1.106,1.3809,0,2.4746-.4463,3.248-1.3247.502-.5571.7886-1.1221.8521-1.6782l.0317-.2783h-2.7109l-.0679.1416c-.106.2197-.2256.3911-.3574.5093-.2407.2192-.5508.3257-.9487.3257-.3843,0-.7002-.0903-.9688-.2769-.3887-.2646-.6118-.7046-.6777-1.3403h5.8071l.0034-.2466c.0103-.7441-.0142-1.3252-.0732-1.7275-.104-.6997-.335-1.3247-.6855-1.8569-.3945-.6104-.9023-1.064-1.5103-1.3486-.5986-.2798-1.2783-.4219-2.02-.4219-1.2583,0-2.2983.4229-3.0913,1.2573-.7896.8311-1.1899,2.0298-1.1899,3.563,0,1.6431.4478,2.853,1.3311,3.5972Zm1.939-5.6821c.2358-.2686.5669-.3994,1.0112-.3994.4111,0,.7446.127,1.019.3882.2231.2124.3672.5171.4292.9087h-2.8853c.0825-.3687.2251-.6694.4258-.8975Z"/>
        <path class="cls-2" d="m28.5933,9.6875c0-.6382.0771-1.1094.229-1.3989.2627-.499.7808-.7417,1.5835-.7417.0645,0,.1499.0029.2534.0073.105.0054.2246.0151.3594.0303l.2778.0308v-2.7983l-.2378-.0117c-.0923-.0049-.1514-.0083-.1826-.0112-.0347-.0029-.0767-.0049-.1265-.0049-.7236,0-1.3242.1958-1.7832.5796-.1528.125-.3149.3013-.4902.5337v-.9102h-2.625v9.0156h2.7422v-4.3203Z"/>
        <rect class="cls-2" x="31.748" y="1.9922" width="2.7266" height="12.0156"/>
        <path class="cls-2" d="m39.5044,14.3047c1.5361,0,2.7026-.4795,3.4678-1.4248.7524-.9292,1.1338-2.061,1.1338-3.3643,0-1.2812-.3809-2.4087-1.1328-3.3511-.7651-.9595-1.9321-1.4458-3.4688-1.4458s-2.7036.4863-3.4688,1.4458c-.752.9424-1.1328,2.0698-1.1328,3.3511,0,1.3032.3813,2.4351,1.1338,3.3643.7651.9453,1.9316,1.4248,3.4678,1.4248Zm-1.313-6.6104c.3042-.3989.7314-.5928,1.3052-.5928.5732,0,.999.1938,1.3008.5923.3135.4146.4727,1.0278.4727,1.8218,0,.7944-.1592,1.4087-.4731,1.8262-.3018.4009-.7271.5957-1.3003.5957-.5737,0-1.0005-.1948-1.3047-.5962-.3164-.417-.4766-1.0312-.4766-1.8257,0-.7939.1602-1.4067.4761-1.8213Z"/>
        <path class="cls-2" d="m48.7974,14.3047c1.4482,0,2.5601-.5269,3.3042-1.5645.4624-.6387.7256-1.3281.7808-2.0493l.021-.269h-2.7686l-.0234.2241c-.042.3984-.1587.7236-.3472.9663-.168.2158-.4746.3252-.9121.3252-.6333,0-1.0356-.2861-1.2666-.9023-.1343-.3486-.2021-.8257-.2021-1.418,0-.624.0684-1.1255.2031-1.4912.2412-.6509.6558-.9541,1.3047-.9541.4453,0,.7598.1348.9565.4053.1489.2212.2432.4746.2798.7524l.0288.2173h2.7773l-.0283-.2754c-.1318-1.2827-.5732-2.1973-1.3115-2.7183-.7197-.5068-1.6499-.7642-2.7651-.7642-1.3247,0-2.3813.4385-3.1411,1.3037-.7515.8555-1.1323,2.0596-1.1323,3.5791,0,1.3491.3442,2.4658,1.0229,3.3193.6924.8716,1.7754,1.3135,3.2192,1.3135Z"/>
        <polygon class="cls-2" points="56.042 11.1787 56.6606 10.5337 58.6064 14.0078 61.8794 14.0078 58.6562 8.5708 61.8901 5.0312 58.4512 5.0312 56.042 7.8135 56.042 2.0312 53.3545 2.0312 53.3545 14.0078 56.042 14.0078 56.042 11.1787"/>
        <rect class="cls-2" x="61.9878" y="1.9219" width="2.7578" height="2.5547"/>
        <rect class="cls-2" x="61.9878" y="4.9922" width="2.7578" height="9.0156"/>
        <path class="cls-2" d="m67.936,9.1484c0-.4893.0669-.8926.1978-1.1963.2397-.5459.6733-.8115,1.3257-.8115.5161,0,.8521.1694,1.0264.5181.1016.2036.1533.5132.1533.9194v5.4297h2.7812v-5.9844c0-1.1406-.313-1.9771-.9312-2.4858-.603-.4966-1.3833-.7485-2.3188-.7485-.7554,0-1.3921.1904-1.8931.5659-.1357.103-.2725.2329-.4116.3921v-.7393h-2.6484v9h2.7188v-4.8594Z"/>
        <path class="cls-2" d="m79.8667,5.689c-.2788-.3052-.6025-.5347-.9678-.686-.3477-.1421-.7554-.2139-1.2119-.2139-1.2354,0-2.2046.4697-2.8813,1.3955-.6592.9019-.9937,2.0249-.9937,3.3389,0,1.3677.3501,2.4722,1.04,3.2832.6997.8228,1.6455,1.2402,2.8115,1.2402.7612,0,1.3936-.188,1.876-.5571.0977-.0728.1929-.1587.2856-.2568-.0137.6543-.1245.8208-.2676,1.0996-.2271.4492-.6807.6675-1.3862.6675H.7812v2.5h77.3901c1.8823,0,3.0806-.5293,3.7632-1.5571.3955-.5972.5962-1.4795.5962-2.6226V4.9922h-2.6641v.6968Zm-.4893,5.4824c-.3125.3418-.6841.5083-1.1357.5083-.6772,0-1.1333-.3027-1.3945-.9248l-.001-.0029c-.1523-.3511-.2295-.7617-.2295-1.2207,0-.5381.0728-.9932.2163-1.3516.2568-.6362.71-.9453,1.3853-.9453.498,0,.8828.1768,1.1768.54.3027.3745.4561.9419.4561,1.6865,0,.791-.1592,1.3667-.4736,1.7104Z"/>
        <rect class="cls-2" x="82.957" y="7.9922" width="4.9844" height="2.6094"/>
        <path class="cls-2" d="m89.645,13.2227c.9004.7183,2.1436,1.082,3.6948,1.082,1.5234,0,2.7261-.3716,3.5737-1.104.8584-.7417,1.2935-1.687,1.2935-2.8101,0-1.1016-.3789-1.9585-1.1265-2.5479-.4697-.3701-1.1646-.667-2.0649-.8828l-1.9854-.4766c-.9199-.2188-1.2866-.3652-1.436-.4517-.2856-.1592-.4185-.3828-.4185-.7036,0-.3628.1455-.6377.4448-.8398.3257-.2202.7778-.332,1.3442-.332.5142,0,.9463.0879,1.2832.2607.4829.251.7354.666.772,1.27l.0142.2349h2.8066l-.0088-.2588c-.0444-1.2969-.5317-2.3037-1.4478-2.9922-.8975-.6733-1.9927-1.0146-3.2554-1.0146-1.5103,0-2.6787.3662-3.4731,1.0884-.8008.729-1.2065,1.6558-1.2065,2.7554,0,1.2124.4282,2.1206,1.2715,2.6978.4897.3394,1.3311.6411,2.5723.9214l1.2197.2734c.6831.1494,1.1855.3208,1.4912.5068.2612.1636.3828.3765.3828.6709,0,.5464-.2676.896-.8408,1.1001-.3262.1152-.7637.1733-1.2998.1733-.8652,0-1.4761-.2085-1.8145-.6196-.1831-.2227-.3096-.5776-.3755-1.0552l-.0298-.2158h-2.7646v.25c0,1.2725.4653,2.2886,1.3833,3.0195Z"/>
        <rect class="cls-2" x="98.6201" y="4.9922" width="2.7578" height="9.0156"/>
        <rect class="cls-2" x="98.6201" y="1.9219" width="2.7578" height="2.5547"/>
        <path class="cls-2" d="m104.6328,8.6328c0-.4219.0513-.7358.1504-.9292.1733-.3262.5205-.4849,1.0605-.4849.5903,0,.7817.2681.874.4702.061.1353.1338.4175.1338.9985v5.3203h2.7422v-5.3203c0-.3438.0532-.6382.1567-.8721.1943-.4233.5269-.6201,1.0464-.6201.438,0,.7144.145.8701.4556.0859.1729.1299.4033.1299.6851v5.6719h2.7808l.0161-5.6172c0-.5625-.0278-1.0005-.0825-1.3052-.0913-.4707-.271-.8755-.5361-1.2041-.3228-.396-.6904-.6787-1.0933-.8403-.9785-.3896-2.022-.2808-2.8525.1455-.3545.1919-.6675.4673-.9341.8208-.1641-.2778-.3706-.52-.6221-.7266-.4429-.3159-1.0229-.4761-1.7231-.4761-.7407,0-1.3569.1855-1.8315.5513-.125.0957-.251.2178-.3794.3677v-.7158h-2.6641v9h2.7578v-5.375Z"/>
        <rect class="cls-2" x="82.957" y="15" width="31.6367" height="2.5"/>
      </g>
    </g>
  </g>
</svg>